<svg width="24" height="24" viewBox="-0.5 0 25 25" fill="none" xmlns="http://www.w3.org/2000/svg" role="img" aria-label="Actualiser">
  <path d="M7.1998 10.8799L3.9998 14.0799L0.799805 10.8799" stroke="#F4FBFF" stroke-width="1.7" stroke-linecap="round" stroke-linejoin="round"/>
  <path d="M17.72 6.77007C16.6086 5.63347 15.1839 4.85371 13.6275 4.53032C12.0711 4.20693 10.4536 4.35459 8.98145 4.95439C7.5093 5.5542 6.24924 6.57899 5.362 7.898C4.47476 9.21701 4.0006 10.7703 4 12.3599V14.0901" stroke="#F4FBFF" stroke-width="1.7" stroke-linecap="round" stroke-linejoin="round"/>
  <path d="M16.7998 13.96L19.9998 10.75L23.1998 13.96" stroke="#F4FBFF" stroke-width="1.7" stroke-linecap="round" stroke-linejoin="round"/>
  <path d="M6.28027 18.0801C7.39163 19.2167 8.8164 19.9962 10.3728 20.3196C11.9292 20.643 13.5467 20.4956 15.0188 19.8958C16.491 19.2959 17.751 18.2712 18.6383 16.9521C19.5255 15.6331 19.9997 14.0796 20.0003 12.49V10.76" stroke="#F4FBFF" stroke-width="1.7" stroke-linecap="round" stroke-linejoin="round"/>
</svg>
